# xmcd
#
# Track frame offsets:
#	150
#	26522
#	60815
#	83102
#	98524
#	119884
#	146469
#	170699
#	191704
#	208732
#	231353
#	262184
#	287348
#
# Disc length: 4176 seconds
#
# Revision: 0
# Processed by: cddbd v1.5.2PL0 Copyright (c) Steve Scherf et al.
# Submitted via: audiograbber 1.83.01
#
DISCID=b9104e0d
DTITLE=Sonny Mack and The Mack II Band - "A Tribute To The blues" Live on Beale S
DTITLE=treet III
DYEAR=1900
DGENRE=Blues
TTITLE0=Sonny Con Carney
TTITLE1=The Sky Is Cryin
TTITLE2=Cold Shot
TTITLE3=Further On Up The Road
TTITLE4=I'll Play The Blues For You
TTITLE5=The Thrill Is Gone
TTITLE6=Hurt Before You Heal
TTITLE7=Last Two Dollars
TTITLE8=Turn Back The Hands Of Time
TTITLE9=Breakin Up Somebody's Home
TTITLE10=Stormy Monday
TTITLE11=Sho Wasn't Me
TTITLE12=Black Magic Woman
EXTD=
EXTT0=
EXTT1=
EXTT2=
EXTT3=
EXTT4=
EXTT5=
EXTT6=
EXTT7=
EXTT8=
EXTT9=
EXTT10=
EXTT11=
EXTT12=
PLAYORDER=
